<mxfile host="Electron" modified="2024-08-19T15:00:25.463Z" agent="Mozilla/5.0 (Windows NT 10.0; Win64; x64) AppleWebKit/537.36 (KHTML, like Gecko) draw.io/24.1.0 Chrome/120.0.6099.109 Electron/28.1.0 Safari/537.36" etag="G_kjGrwpHhRi1TDzYuJQ" version="24.1.0" type="device">
  <diagram name="Page-1" id="03018318-947c-dd8e-b7a3-06fadd420f32">
    <mxGraphModel dx="1434" dy="836" grid="1" gridSize="10" guides="1" tooltips="1" connect="1" arrows="1" fold="1" page="1" pageScale="1" pageWidth="1100" pageHeight="850" background="#ffffff" math="0" shadow="0">
      <root>
        <mxCell id="0" />
        <mxCell id="1" parent="0" />
        <mxCell id="EpZ2OS8YSO7YM-oZr80U-3" value="" style="whiteSpace=wrap;html=1;rounded=0;shadow=0;labelBackgroundColor=none;strokeColor=#000000;strokeWidth=1;fillColor=none;fontFamily=Verdana;fontSize=12;fontColor=#000000;align=center;comic=1;" parent="1" vertex="1">
          <mxGeometry x="424" y="300" width="256" height="330" as="geometry" />
        </mxCell>
        <mxCell id="EpZ2OS8YSO7YM-oZr80U-6" value="Username" style="strokeWidth=1;shadow=0;dashed=0;align=center;html=1;shape=mxgraph.mockup.text.textBox;fontColor=#666666;align=left;fontSize=17;spacingLeft=4;spacingTop=-3;whiteSpace=wrap;strokeColor=#666666;mainText=" parent="1" vertex="1">
          <mxGeometry x="475" y="435" width="150" height="30" as="geometry" />
        </mxCell>
        <mxCell id="EpZ2OS8YSO7YM-oZr80U-10" value="" style="line;strokeWidth=1;html=1;rounded=0;shadow=0;labelBackgroundColor=none;fillColor=none;fontFamily=Verdana;fontSize=14;fontColor=#000000;align=center;comic=1;" parent="1" vertex="1">
          <mxGeometry x="424" y="350" width="256" height="10" as="geometry" />
        </mxCell>
        <mxCell id="EpZ2OS8YSO7YM-oZr80U-11" value="Login" style="text;html=1;align=center;verticalAlign=middle;whiteSpace=wrap;rounded=0;fontSize=18;fontStyle=1" parent="1" vertex="1">
          <mxGeometry x="520" y="320" width="60" height="22" as="geometry" />
        </mxCell>
        <mxCell id="EpZ2OS8YSO7YM-oZr80U-12" value="Login" style="strokeWidth=1;shadow=0;dashed=0;align=center;html=1;shape=mxgraph.mockup.buttons.button;strokeColor=#666666;fontColor=#333333;mainText=;buttonStyle=round;fontSize=17;fontStyle=1;fillColor=#f5f5f5;whiteSpace=wrap;" parent="1" vertex="1">
          <mxGeometry x="473" y="480" width="155" height="30" as="geometry" />
        </mxCell>
        <mxCell id="EpZ2OS8YSO7YM-oZr80U-13" value="Noch keinen Account? Registriere dich &lt;b&gt;&lt;u&gt;hier.&lt;/u&gt;&lt;/b&gt;" style="text;html=1;align=center;verticalAlign=middle;whiteSpace=wrap;rounded=0;" parent="1" vertex="1">
          <mxGeometry x="470" y="550" width="160" height="30" as="geometry" />
        </mxCell>
        <mxCell id="EpZ2OS8YSO7YM-oZr80U-16" value="" style="line;strokeWidth=1;html=1;rounded=0;shadow=0;labelBackgroundColor=none;fillColor=none;fontFamily=Verdana;fontSize=14;fontColor=#000000;align=center;comic=1;" parent="1" vertex="1">
          <mxGeometry x="20" y="830" width="1060" height="10" as="geometry" />
        </mxCell>
        <mxCell id="EpZ2OS8YSO7YM-oZr80U-17" value="" style="line;strokeWidth=1;html=1;rounded=0;shadow=0;labelBackgroundColor=none;fillColor=none;fontFamily=Verdana;fontSize=14;fontColor=#000000;align=center;comic=1;" parent="1" vertex="1">
          <mxGeometry x="20" y="10" width="1060" height="10" as="geometry" />
        </mxCell>
        <mxCell id="EpZ2OS8YSO7YM-oZr80U-18" value="" style="line;strokeWidth=1;html=1;rounded=0;shadow=0;labelBackgroundColor=none;fillColor=none;fontFamily=Verdana;fontSize=14;fontColor=#000000;align=center;comic=1;rotation=90;" parent="1" vertex="1">
          <mxGeometry x="670" y="420" width="820" height="10" as="geometry" />
        </mxCell>
        <mxCell id="EpZ2OS8YSO7YM-oZr80U-19" value="" style="line;strokeWidth=1;html=1;rounded=0;shadow=0;labelBackgroundColor=none;fillColor=none;fontFamily=Verdana;fontSize=14;fontColor=#000000;align=center;comic=1;rotation=90;" parent="1" vertex="1">
          <mxGeometry x="-390" y="420" width="820" height="10" as="geometry" />
        </mxCell>
        <mxCell id="EpZ2OS8YSO7YM-oZr80U-20" value="&lt;h1 style=&quot;margin-top: 0px; font-size: 43px;&quot;&gt;Willkommensnachricht&lt;/h1&gt;&lt;div&gt;....&lt;/div&gt;" style="text;html=1;whiteSpace=wrap;overflow=hidden;rounded=0;fontSize=43;align=center;" parent="1" vertex="1">
          <mxGeometry x="278" y="110" width="545" height="170" as="geometry" />
        </mxCell>
      </root>
    </mxGraphModel>
  </diagram>
</mxfile>
